<mxfile host="app.diagrams.net" agent="Mozilla/5.0 (Windows NT 10.0; Win64; x64) AppleWebKit/537.36 (KHTML, like Gecko) Chrome/133.0.0.0 Safari/537.36" version="26.0.16">
  <diagram name="Halaman-1" id="3-1gpf13-BbYsWGeoSAa">
    <mxGraphModel dx="1434" dy="784" grid="1" gridSize="10" guides="1" tooltips="1" connect="1" arrows="1" fold="1" page="1" pageScale="1" pageWidth="827" pageHeight="1169" math="0" shadow="0">
      <root>
        <mxCell id="0" />
        <mxCell id="1" parent="0" />
        <mxCell id="mbPTXd4D49nLZw63IYRb-6" style="edgeStyle=orthogonalEdgeStyle;rounded=0;orthogonalLoop=1;jettySize=auto;html=1;exitX=0.5;exitY=1;exitDx=0;exitDy=0;exitPerimeter=0;" edge="1" parent="1" source="mbPTXd4D49nLZw63IYRb-1" target="mbPTXd4D49nLZw63IYRb-2">
          <mxGeometry relative="1" as="geometry" />
        </mxCell>
        <mxCell id="mbPTXd4D49nLZw63IYRb-1" value="Mulai" style="strokeWidth=2;html=1;shape=mxgraph.flowchart.start_1;whiteSpace=wrap;" vertex="1" parent="1">
          <mxGeometry x="364" y="80" width="100" height="60" as="geometry" />
        </mxCell>
        <mxCell id="mbPTXd4D49nLZw63IYRb-7" style="edgeStyle=orthogonalEdgeStyle;rounded=0;orthogonalLoop=1;jettySize=auto;html=1;exitX=0.5;exitY=1;exitDx=0;exitDy=0;entryX=0.5;entryY=0;entryDx=0;entryDy=0;" edge="1" parent="1" source="mbPTXd4D49nLZw63IYRb-2" target="mbPTXd4D49nLZw63IYRb-4">
          <mxGeometry relative="1" as="geometry" />
        </mxCell>
        <mxCell id="mbPTXd4D49nLZw63IYRb-2" value="Membuat fungsi&amp;nbsp;&lt;br&gt;InitializeStack(Stack *S)" style="verticalLabelPosition=middle;verticalAlign=middle;shape=hexagon;perimeter=hexagonPerimeter2;arcSize=6;size=0.27;labelPosition=center;align=center;html=1;labelBackgroundColor=none;textShadow=0;whiteSpace=wrap;horizontal=1;" vertex="1" parent="1">
          <mxGeometry x="291" y="180" width="246" height="110" as="geometry" />
        </mxCell>
        <mxCell id="mbPTXd4D49nLZw63IYRb-8" style="edgeStyle=orthogonalEdgeStyle;rounded=0;orthogonalLoop=1;jettySize=auto;html=1;exitX=0.5;exitY=1;exitDx=0;exitDy=0;" edge="1" parent="1" source="mbPTXd4D49nLZw63IYRb-4" target="mbPTXd4D49nLZw63IYRb-5">
          <mxGeometry relative="1" as="geometry" />
        </mxCell>
        <mxCell id="mbPTXd4D49nLZw63IYRb-4" value="Lalu mengatur di dalam fungsi&amp;nbsp;S-&amp;gt;Count = 0" style="rounded=1;whiteSpace=wrap;html=1;absoluteArcSize=1;arcSize=14;strokeWidth=2;" vertex="1" parent="1">
          <mxGeometry x="311" y="330" width="206" height="100" as="geometry" />
        </mxCell>
        <mxCell id="mbPTXd4D49nLZw63IYRb-5" value="Selesai" style="strokeWidth=2;html=1;shape=mxgraph.flowchart.start_1;whiteSpace=wrap;" vertex="1" parent="1">
          <mxGeometry x="364" y="470" width="100" height="60" as="geometry" />
        </mxCell>
      </root>
    </mxGraphModel>
  </diagram>
</mxfile>
